<svg width="120" height="120" viewBox="0 0 120 120" fill="none" xmlns="http://www.w3.org/2000/svg">
<circle opacity="0.5" cx="60" cy="60" r="60" fill="#12AA18" fill-opacity="0.1"/>
<path d="M84.9998 59.9995C84.9998 73.8095 73.8073 84.9995 59.9998 84.9995C46.1923 84.9995 34.9998 73.8095 34.9998 59.9995C34.9998 46.1945 46.1923 34.9995 59.9998 34.9995C73.8073 34.9995 84.9998 46.1945 84.9998 59.9995Z" fill="#12AA18"/>
<path d="M57.0334 68.1197C56.4734 68.1197 55.9134 67.9072 55.4859 67.4797L49.5534 61.5472C48.6984 60.6922 48.6984 59.3072 49.5534 58.4547C50.4084 57.5997 51.7909 57.5972 52.6459 58.4522L57.0334 62.8397L67.3534 52.5197C68.2084 51.6647 69.5909 51.6647 70.4459 52.5197C71.3009 53.3747 71.3009 54.7597 70.4459 55.6147L58.5809 67.4797C58.1534 67.9072 57.5934 68.1197 57.0334 68.1197Z" fill="white"/>
</svg>
