<svg width="120" height="120" viewBox="0 0 120 120" fill="none" xmlns="http://www.w3.org/2000/svg">
<circle opacity="0.5" cx="60" cy="60" r="60" fill="#FF6464" fill-opacity="0.13"/>
<path d="M84.9998 59.9995C84.9998 73.8095 73.8073 84.9995 59.9998 84.9995C46.1923 84.9995 34.9998 73.8095 34.9998 59.9995C34.9998 46.1945 46.1923 34.9995 59.9998 34.9995C73.8073 34.9995 84.9998 46.1945 84.9998 59.9995Z" fill="#FF6464"/>
<path d="M58.8846 51.2857H62.1154C62.1154 50.85 61.9452 50.4321 61.6422 50.124C61.3393 49.8159 60.9284 49.6429 60.5 49.6429C60.0716 49.6429 59.6607 49.8159 59.3578 50.124C59.0548 50.4321 58.8846 50.85 58.8846 51.2857ZM57.2692 51.2857C57.2692 50.4143 57.6096 49.5786 58.2155 48.9624C58.8214 48.3462 59.6431 48 60.5 48C61.3569 48 62.1786 48.3462 62.7845 48.9624C63.3904 49.5786 63.7308 50.4143 63.7308 51.2857H70.1923C70.4065 51.2857 70.612 51.3723 70.7634 51.5263C70.9149 51.6804 71 51.8893 71 52.1071C71 52.325 70.9149 52.5339 70.7634 52.688C70.612 52.842 70.4065 52.9286 70.1923 52.9286H69.2812L67.3347 67.4481C67.2027 68.4321 66.7246 69.3341 65.9889 69.9871C65.2533 70.6402 64.3099 71 63.3334 71H57.6666C56.6901 71 55.7467 70.6402 55.0111 69.9871C54.2754 69.3341 53.7973 68.4321 53.6653 67.4481L51.7188 52.9286H50.8077C50.5935 52.9286 50.388 52.842 50.2366 52.688C50.0851 52.5339 50 52.325 50 52.1071C50 51.8893 50.0851 51.6804 50.2366 51.5263C50.388 51.3723 50.5935 51.2857 50.8077 51.2857H57.2692ZM58.8846 57.0357C58.8846 56.8179 58.7995 56.6089 58.648 56.4549C58.4966 56.3008 58.2911 56.2143 58.0769 56.2143C57.8627 56.2143 57.6573 56.3008 57.5058 56.4549C57.3543 56.6089 57.2692 56.8179 57.2692 57.0357V65.25C57.2692 65.4679 57.3543 65.6768 57.5058 65.8308C57.6573 65.9849 57.8627 66.0714 58.0769 66.0714C58.2911 66.0714 58.4966 65.9849 58.648 65.8308C58.7995 65.6768 58.8846 65.4679 58.8846 65.25V57.0357ZM62.9231 56.2143C63.1373 56.2143 63.3427 56.3008 63.4942 56.4549C63.6457 56.6089 63.7308 56.8179 63.7308 57.0357V65.25C63.7308 65.4679 63.6457 65.6768 63.4942 65.8308C63.3427 65.9849 63.1373 66.0714 62.9231 66.0714C62.7089 66.0714 62.5034 65.9849 62.352 65.8308C62.2005 65.6768 62.1154 65.4679 62.1154 65.25V57.0357C62.1154 56.8179 62.2005 56.6089 62.352 56.4549C62.5034 56.3008 62.7089 56.2143 62.9231 56.2143ZM55.2662 67.2264C55.3454 67.8166 55.6323 68.3577 56.0736 68.7494C56.5149 69.1412 57.0808 69.3571 57.6666 69.3571H63.3334C63.9194 69.3575 64.4858 69.1418 64.9274 68.75C65.3691 68.3582 65.6561 67.8169 65.7355 67.2264L67.6513 52.9286H53.3487L55.2662 67.2264Z" fill="white"/>
</svg>
