<svg width="66" height="64" viewBox="0 0 66 64" fill="none" xmlns="http://www.w3.org/2000/svg">
<path d="M2.67285 39.0531C2.67285 36.0398 3.27241 33.0558 4.43738 30.2719C5.60236 27.4878 7.30982 24.9582 9.46239 22.8274C11.6149 20.6966 14.1703 19.0063 16.9827 17.8531C19.7953 16.7 22.8096 16.1064 25.8538 16.1064V39.0531H2.67285Z" fill="#EE3B3B"/>
<path d="M2.67285 39.0532C2.67285 42.0667 3.27241 45.0506 4.43738 47.8347C5.60236 50.6187 7.30982 53.1483 9.46239 55.2791C11.6149 57.4099 14.1703 59.1002 16.9827 60.2534C19.7953 61.4066 22.8096 62 25.8538 62V39.0532H2.67285Z" fill="#FF6464"/>
<path d="M49.0346 39.0532C49.0346 42.0667 48.4354 45.0506 47.2706 47.8347C46.1056 50.6187 44.3983 53.1483 42.2453 55.2791C40.0928 57.4099 37.5373 59.1002 34.7248 60.2534C31.9125 61.4066 28.8981 62 25.854 62V39.0532H49.0346Z" fill="#FF6464" fill-opacity="0.48"/>
<path d="M63.3274 19.2293C63.3274 28.7448 55.5345 36.4587 45.9221 36.4587H28.5171V19.2293C28.5171 9.71387 36.3097 2 45.9221 2C55.5345 2 63.3274 9.71387 63.3274 19.2293Z" fill="#FF7917"/>
</svg>
