<svg width="24" height="24" viewBox="0 0 24 24" fill="none" xmlns="http://www.w3.org/2000/svg">
<path fill-rule="evenodd" clip-rule="evenodd" d="M10.796 1.31754C12.653 0.899536 14 2.49554 14 4.07354V18.0735C14 19.6515 12.653 21.2475 10.796 20.8295C6.334 19.8255 3 15.8395 3 11.0735C3 6.30754 6.334 2.32154 10.796 1.31754ZM16.293 7.36654C16.4805 7.17907 16.7348 7.07375 17 7.07375C17.2652 7.07375 17.5195 7.17907 17.707 7.36654L20.707 10.3665C20.8945 10.5541 20.9998 10.8084 20.9998 11.0735C20.9998 11.3387 20.8945 11.593 20.707 11.7805L17.707 14.7805C17.5184 14.9627 17.2658 15.0635 17.0036 15.0612C16.7414 15.0589 16.4906 14.9538 16.3052 14.7684C16.1198 14.5829 16.0146 14.3321 16.0123 14.0699C16.01 13.8077 16.1108 13.5551 16.293 13.3665L17.586 12.0735H9C8.73478 12.0735 8.48043 11.9682 8.29289 11.7806C8.10536 11.5931 8 11.3388 8 11.0735C8 10.8083 8.10536 10.554 8.29289 10.3664C8.48043 10.1789 8.73478 10.0735 9 10.0735H17.586L16.293 8.78054C16.1055 8.59301 16.0002 8.3387 16.0002 8.07354C16.0002 7.80837 16.1055 7.55406 16.293 7.36654Z" fill="#FF6464"/>
</svg>
