<svg width="38" height="37" viewBox="0 0 38 37" fill="none" xmlns="http://www.w3.org/2000/svg">
<path d="M35.1067 16.199H21.3011V2.39346C21.3011 1.78321 21.0587 1.19796 20.6272 0.766455C20.1957 0.334948 19.6104 0.0925293 19.0002 0.0925293C18.3899 0.0925293 17.8047 0.334948 17.3732 0.766455C16.9417 1.19796 16.6993 1.78321 16.6993 2.39346V16.199H2.8937C2.28346 16.199 1.69821 16.4414 1.2667 16.8729C0.835192 17.3044 0.592773 17.8897 0.592773 18.4999C0.592773 19.1102 0.835192 19.6954 1.2667 20.1269C1.69821 20.5584 2.28346 20.8009 2.8937 20.8009H16.6993V34.6064C16.6993 35.2167 16.9417 35.8019 17.3732 36.2334C17.8047 36.6649 18.3899 36.9073 19.0002 36.9073C19.6104 36.9073 20.1957 36.6649 20.6272 36.2334C21.0587 35.8019 21.3011 35.2167 21.3011 34.6064V20.8009H35.1067C35.7169 20.8009 36.3022 20.5584 36.7337 20.1269C37.1652 19.6954 37.4076 19.1102 37.4076 18.4999C37.4076 17.8897 37.1652 17.3044 36.7337 16.8729C36.3022 16.4414 35.7169 16.199 35.1067 16.199Z" fill="#FF6464"/>
</svg>
